<svg xmlns="http://www.w3.org/2000/svg" width="512" height="512" viewBox="0 0 512 512" version="1.1"><path d="M 173.332 121.851 C 170.490 122.833, 166.596 124.833, 164.679 126.295 C 159.236 130.447, 151.373 141.526, 145.872 152.793 C 140.342 164.121, 129.440 194.604, 125.485 209.796 C 124.096 215.133, 121.956 223.279, 120.730 227.898 L 118.500 236.296 113.500 237.645 C 110.750 238.387, 105.462 239.719, 101.750 240.606 C 92.247 242.874, 92.474 243.288, 106 248.365 C 114.825 251.678, 114.600 250.953, 111.690 266.698 C 108.970 281.420, 107.468 291.079, 106.500 300.074 C 105.823 306.369, 108.041 318.887, 110.498 322.637 C 112.579 325.813, 116.402 325.720, 118.703 322.438 C 119.691 321.028, 121.528 318.582, 122.785 317.002 C 124.041 315.422, 125.727 311.913, 126.531 309.206 C 127.335 306.499, 129.345 302.583, 130.997 300.504 C 132.648 298.426, 134 296.506, 134 296.237 C 134 295.254, 127.581 297.069, 126 298.500 C 125.103 299.312, 122.860 300.278, 121.017 300.647 C 118.003 301.249, 117.740 301.124, 118.412 299.409 C 118.824 298.359, 120.691 290.101, 122.562 281.059 C 124.433 272.016, 126.886 261.847, 128.013 258.461 L 130.062 252.304 142.188 251.652 C 148.857 251.293, 166.339 251, 181.035 251 L 207.757 251 208.906 255.250 C 209.538 257.587, 211.376 264.675, 212.989 271 C 214.602 277.325, 217.995 289.250, 220.528 297.500 C 223.060 305.750, 225.921 315.200, 226.884 318.500 C 230.365 330.423, 239.398 348.002, 241.146 346.254 C 244.020 343.380, 242.612 301.859, 239.104 286 C 238.069 281.325, 236.031 271.922, 234.574 265.104 L 231.926 252.708 234.213 250.272 C 235.471 248.932, 238.605 246.652, 241.178 245.206 C 243.751 243.759, 245.661 242.260, 245.423 241.875 C 245.184 241.489, 243.079 240.879, 240.745 240.518 C 238.410 240.157, 234.393 239.192, 231.818 238.374 C 227.183 236.899, 227.123 236.824, 225.687 230.692 C 224.889 227.287, 223.284 221.125, 222.119 217 C 220.954 212.875, 217.793 201.625, 215.093 192 C 203.435 150.428, 198.476 136.132, 192.524 126.931 L 188.040 120 183.270 120.033 C 180.647 120.051, 176.175 120.869, 173.332 121.851 M 173.313 139.658 C 168.035 147.335, 159.386 164.308, 153.693 178.164 C 149.054 189.455, 134.826 232.988, 135.510 233.798 C 135.649 233.961, 143.578 233.575, 153.131 232.939 C 163.371 232.257, 177.170 232.061, 186.750 232.460 C 195.688 232.833, 203 232.851, 203 232.500 C 203 231.781, 197.047 208.713, 190.483 184 C 185.973 167.017, 177.688 140.536, 176.141 138.158 C 175.470 137.126, 174.815 137.474, 173.313 139.658 M 327.500 169.072 C 310.139 170.822, 292.922 174.336, 278.248 179.124 C 273.165 180.783, 271.876 181.644, 271.352 183.733 C 270.998 185.146, 268.502 188.737, 265.806 191.714 C 260.670 197.386, 260.223 199.952, 263.896 202.687 C 265.686 204.021, 267.247 203.756, 277.907 200.311 C 291.594 195.888, 342.997 186.664, 344.664 188.331 C 345.006 188.672, 344.658 195.375, 343.892 203.226 C 341.847 224.199, 342.083 271.737, 344.319 289 C 345.280 296.425, 346.649 304.750, 347.360 307.500 L 348.652 312.500 349.280 306 C 349.625 302.425, 350.464 282.536, 351.144 261.801 C 352.129 231.784, 352.127 220.596, 351.137 206.892 C 350.453 197.425, 349.805 189.190, 349.697 188.590 C 349.360 186.724, 371.027 185.592, 384.976 186.746 C 392.102 187.336, 398.319 187.410, 399.476 186.918 C 404.645 184.719, 411.500 180.215, 411.500 179.018 C 411.500 177.562, 404.104 174.751, 394.032 172.379 C 377.566 168.500, 347.836 167.023, 327.500 169.072 M 511.232 240 C 511.232 241.925, 511.438 242.713, 511.689 241.750 C 511.941 240.787, 511.941 239.213, 511.689 238.250 C 511.438 237.287, 511.232 238.075, 511.232 240 M 511.070 271.191 C 511.032 272.671, 511.450 274.160, 512 274.500 C 513.194 275.238, 513.194 273.278, 512 270.500 C 511.233 268.714, 511.133 268.788, 511.070 271.191 M 239.250 511.689 C 240.213 511.941, 241.787 511.941, 242.750 511.689 C 243.713 511.438, 242.925 511.232, 241 511.232 C 239.075 511.232, 238.287 511.438, 239.250 511.689" stroke="none" fill="#e4c1f7" fill-rule="evenodd"/><path d="M 231 0.995 C 193.556 4.795, 155.681 17.261, 124.191 36.150 C 115.566 41.324, 113.594 42.651, 103 50.410 C 64.188 78.834, 31.332 123.100, 14.977 169 C 4.201 199.243, 0.490 221.752, 0.549 256.500 C 0.594 283.364, 2.016 296.363, 7.109 316.500 C 18.840 362.884, 39.700 400.352, 72.446 433.857 C 96.810 458.787, 122.652 477.018, 152.194 490.116 C 172.317 499.039, 199.260 506.714, 220.500 509.574 C 238.598 512.011, 272.772 512.019, 291 509.590 C 361.330 500.221, 426.471 459.795, 467.588 400 C 491.524 365.191, 508.292 318.132, 510.688 279.044 C 511.085 272.564, 511.620 269.332, 512.094 270.544 C 512.515 271.620, 512.838 264.625, 512.811 255 C 512.784 244.896, 512.441 238.768, 512 240.500 C 511.401 242.854, 511.210 242.101, 511.114 237 C 510.922 226.885, 507.502 205.846, 503.636 191 C 489.158 135.408, 455.770 85.628, 409.855 51.176 C 376.499 26.148, 335.947 9.014, 295.500 2.859 C 280.716 0.609, 244.980 -0.424, 231 0.995 M 173.332 121.851 C 170.490 122.833, 166.596 124.833, 164.679 126.295 C 159.236 130.447, 151.373 141.526, 145.872 152.793 C 140.342 164.121, 129.440 194.604, 125.485 209.796 C 124.096 215.133, 121.956 223.279, 120.730 227.898 L 118.500 236.296 113.500 237.645 C 110.750 238.387, 105.462 239.719, 101.750 240.606 C 92.247 242.874, 92.474 243.288, 106 248.365 C 114.825 251.678, 114.600 250.953, 111.690 266.698 C 108.970 281.420, 107.468 291.079, 106.500 300.074 C 105.823 306.369, 108.041 318.887, 110.498 322.637 C 112.579 325.813, 116.402 325.720, 118.703 322.438 C 119.691 321.028, 121.528 318.582, 122.785 317.002 C 124.041 315.422, 125.727 311.913, 126.531 309.206 C 127.335 306.499, 129.345 302.583, 130.997 300.504 C 132.648 298.426, 134 296.506, 134 296.237 C 134 295.254, 127.581 297.069, 126 298.500 C 125.103 299.312, 122.860 300.278, 121.017 300.647 C 118.003 301.249, 117.740 301.124, 118.412 299.409 C 118.824 298.359, 120.691 290.101, 122.562 281.059 C 124.433 272.016, 126.886 261.847, 128.013 258.461 L 130.062 252.304 142.188 251.652 C 148.857 251.293, 166.339 251, 181.035 251 L 207.757 251 208.906 255.250 C 209.538 257.587, 211.376 264.675, 212.989 271 C 214.602 277.325, 217.995 289.250, 220.528 297.500 C 223.060 305.750, 225.921 315.200, 226.884 318.500 C 230.365 330.423, 239.398 348.002, 241.146 346.254 C 244.020 343.380, 242.612 301.859, 239.104 286 C 238.069 281.325, 236.031 271.922, 234.574 265.104 L 231.926 252.708 234.213 250.272 C 235.471 248.932, 238.605 246.652, 241.178 245.206 C 243.751 243.759, 245.661 242.260, 245.423 241.875 C 245.184 241.489, 243.079 240.879, 240.745 240.518 C 238.410 240.157, 234.393 239.192, 231.818 238.374 C 227.183 236.899, 227.123 236.824, 225.687 230.692 C 224.889 227.287, 223.284 221.125, 222.119 217 C 220.954 212.875, 217.793 201.625, 215.093 192 C 203.435 150.428, 198.476 136.132, 192.524 126.931 L 188.040 120 183.270 120.033 C 180.647 120.051, 176.175 120.869, 173.332 121.851 M 173.313 139.658 C 168.035 147.335, 159.386 164.308, 153.693 178.164 C 149.054 189.455, 134.826 232.988, 135.510 233.798 C 135.649 233.961, 143.578 233.575, 153.131 232.939 C 163.371 232.257, 177.170 232.061, 186.750 232.460 C 195.688 232.833, 203 232.851, 203 232.500 C 203 231.781, 197.047 208.713, 190.483 184 C 185.973 167.017, 177.688 140.536, 176.141 138.158 C 175.470 137.126, 174.815 137.474, 173.313 139.658 M 327.500 169.072 C 310.139 170.822, 292.922 174.336, 278.248 179.124 C 273.165 180.783, 271.876 181.644, 271.352 183.733 C 270.998 185.146, 268.502 188.737, 265.806 191.714 C 260.670 197.386, 260.223 199.952, 263.896 202.687 C 265.686 204.021, 267.247 203.756, 277.907 200.311 C 291.594 195.888, 342.997 186.664, 344.664 188.331 C 345.006 188.672, 344.658 195.375, 343.892 203.226 C 341.847 224.199, 342.083 271.737, 344.319 289 C 345.280 296.425, 346.649 304.750, 347.360 307.500 L 348.652 312.500 349.280 306 C 349.625 302.425, 350.464 282.536, 351.144 261.801 C 352.129 231.784, 352.127 220.596, 351.137 206.892 C 350.453 197.425, 349.805 189.190, 349.697 188.590 C 349.360 186.724, 371.027 185.592, 384.976 186.746 C 392.102 187.336, 398.319 187.410, 399.476 186.918 C 404.645 184.719, 411.500 180.215, 411.500 179.018 C 411.500 177.562, 404.104 174.751, 394.032 172.379 C 377.566 168.500, 347.836 167.023, 327.500 169.072 M 0.411 256 C 0.411 265.625, 0.561 269.563, 0.745 264.750 C 0.928 259.938, 0.928 252.062, 0.745 247.250 C 0.561 242.438, 0.411 246.375, 0.411 256" stroke="none" fill="#242424" fill-rule="evenodd"/></svg>