<svg version="1.1" id="Layer_1" xmlns="http://www.w3.org/2000/svg" xmlns:xlink="http://www.w3.org/1999/xlink" x="0px" y="0px"
	 width="100%" viewBox="0 0 512 512" enable-background="new 0 0 512 512" xml:space="preserve">
<path fill="#262526" opacity="1.000000" stroke="none" 
	d="
M292.000000,1.000000 
	C292.444458,1.000000 292.888885,1.000000 293.702148,1.391889 
	C295.003540,2.488632 295.878693,3.711560 296.877228,3.822330 
	C320.010040,6.388465 341.634125,14.006210 362.769196,23.296574 
	C383.432739,32.379658 402.872345,43.556267 419.418213,59.010921 
	C433.174500,71.859978 447.188690,84.663109 459.259216,99.024208 
	C472.209595,114.432076 482.447998,132.014404 490.712585,150.499359 
	C499.580078,170.332809 506.296173,190.848907 509.249084,212.505066 
	C509.695587,215.779633 511.710541,218.840363 513.000000,222.000000 
	C513.000000,222.750000 513.000000,223.500000 512.767944,224.627670 
	C512.302551,225.178101 512.069153,225.350861 511.835785,225.523605 
	C512.223877,225.682404 512.611938,225.841202 513.000000,226.000000 
	C513.000000,247.687561 513.000000,269.375122 512.633423,291.616333 
	C510.843323,297.501007 509.407593,302.828827 507.998779,308.163727 
	C504.635101,320.901459 502.461639,334.111206 497.625366,346.261780 
	C491.784607,360.936066 483.771179,374.754669 476.550995,388.868347 
	C468.886200,403.851105 458.541473,416.874420 446.739716,428.784210 
	C440.452942,435.128479 433.880402,441.207458 427.855194,447.789215 
	C415.509766,461.274902 399.810364,470.144867 384.646942,479.745605 
	C380.455841,482.399170 375.826599,484.403381 371.282867,486.449005 
	C360.292358,491.397034 349.559662,497.248779 338.119568,500.782684 
	C324.028564,505.135437 309.316986,507.469910 294.900116,510.791718 
	C293.504547,511.113312 292.295563,512.244568 291.000000,513.000000 
	C268.312439,513.000000 245.624878,513.000000 222.381134,512.638794 
	C220.987320,511.848969 220.192703,511.198883 219.305283,511.026520 
	C211.549850,509.519745 203.595139,508.720825 196.053040,506.507446 
	C184.413651,503.091736 173.109390,498.552521 161.561737,494.801544 
	C143.442123,488.915802 127.375099,479.052338 111.709869,468.659760 
	C102.552422,462.584595 94.484703,454.866791 85.873688,447.576202 
	C85.150108,446.848663 84.479576,446.432922 83.634918,445.936615 
	C83.242165,445.706909 83.084961,445.509003 82.892532,444.993896 
	C82.512657,444.484924 82.229416,444.244293 81.975922,444.010162 
	C82.005676,444.016632 81.971413,444.067017 81.937050,443.720825 
	C80.577507,442.257446 79.252327,441.140228 77.956879,440.009521 
	C77.986610,439.996033 78.001343,440.059662 77.879265,439.833618 
	C77.485535,439.404938 77.213882,439.202301 76.973824,438.997223 
	C77.005417,438.994751 77.000282,439.057953 76.877975,438.832428 
	C76.484451,438.404449 76.213234,438.201996 75.973701,437.997070 
	C76.005386,437.994629 76.000465,438.058014 75.877945,437.832581 
	C75.484253,437.404541 75.213089,437.201965 74.973312,437.007141 
	C75.004700,437.014893 74.975822,437.072754 74.940872,436.725311 
	C73.248085,434.928070 71.590256,433.478241 69.958099,432.011841 
	C69.983780,431.995209 69.993736,432.055573 69.882431,431.822906 
	C69.494232,431.394714 69.217346,431.199219 68.970901,431.003906 
	C69.001343,431.004120 68.977776,431.060242 68.936401,430.755371 
	C68.305260,429.993927 67.715477,429.537354 66.954437,428.779236 
	C63.716194,425.037872 60.403687,421.783997 57.630512,418.121735 
	C50.673233,408.933899 42.999374,400.102264 37.383907,390.130463 
	C29.799597,376.662415 22.429655,363.064240 17.105537,348.287231 
	C11.046687,331.470947 5.665116,314.715118 3.821794,296.894135 
	C3.678992,295.513550 1.977201,294.294250 1.000004,293.000000 
	C1.000000,292.250000 1.000000,291.500000 1.233265,290.373871 
	C1.701119,289.825043 1.935706,289.652344 2.170295,289.479645 
	C1.780199,289.319763 1.390103,289.159882 1.000003,289.000000 
	C1.000000,267.979095 1.000000,246.958206 1.331281,225.422058 
	C2.414335,222.380585 3.321619,219.888870 3.890827,217.322189 
	C6.292562,206.492142 8.312135,195.569626 10.992653,184.810791 
	C15.875639,165.211868 24.137653,146.908310 34.189861,129.507172 
	C40.298637,118.932404 46.966522,108.524803 54.618683,99.038696 
	C63.297501,88.279877 73.205345,78.486969 82.880424,68.568291 
	C87.573921,63.756626 92.651642,59.196144 98.090515,55.261631 
	C108.501366,47.730343 119.202309,40.585899 129.973206,33.573250 
	C134.493362,30.630285 139.362091,28.120235 144.311325,25.961119 
	C153.285629,22.046049 162.498108,18.679737 171.503525,14.832427 
	C184.591461,9.240977 198.590332,7.603936 212.359756,4.883659 
	C216.340225,4.097284 220.125336,2.321951 224.000000,1.000000 
	C231.687576,1.000000 239.375168,1.000000 247.839157,1.280866 
	C254.410385,1.374488 260.205200,1.187244 266.000000,1.000000 
	C273.687592,1.000000 281.375153,1.000000 289.555847,1.288212 
	C290.376526,1.875472 290.704102,2.174521 291.031647,2.473570 
	C291.354431,1.982381 291.677216,1.491190 292.000000,1.000000 
M138.904327,173.152863 
	C132.922531,193.060349 126.893936,212.954010 121.005974,232.889206 
	C120.047867,236.133133 119.010269,238.040588 114.983177,238.641296 
	C108.476898,239.611862 102.169220,241.913834 94.648354,243.960892 
	C101.443466,247.019379 106.919487,249.643692 112.529236,251.941528 
	C115.318619,253.084076 115.521729,254.587540 115.004990,257.339661 
	C112.548103,270.424774 110.221329,283.539856 108.184624,296.696350 
	C106.870499,305.185120 107.289917,313.690521 110.704834,321.719666 
	C111.443214,323.455750 113.429077,325.815796 114.851868,325.823761 
	C116.776360,325.834534 119.526382,324.324768 120.505104,322.642792 
	C125.326874,314.356110 129.680283,305.796906 134.776993,296.251404 
	C129.177582,298.639404 124.511604,300.629303 118.389160,303.240387 
	C122.416054,286.967346 126.181252,272.387939 129.557205,257.718933 
	C130.560959,253.357468 132.843033,252.379654 136.882019,252.384476 
	C156.208817,252.407547 175.535858,252.194962 194.862885,252.079468 
	C199.482620,252.051865 204.102661,252.075363 208.877228,252.075363 
	C209.959183,256.023926 210.886307,259.369507 211.792557,262.720734 
	C218.575897,287.804962 224.297546,313.227539 235.064011,337.053680 
	C236.739670,340.761871 239.109512,344.156372 241.158340,347.695953 
	C241.657013,347.470245 242.155685,347.244537 242.654358,347.018829 
	C245.517685,329.529510 243.781097,312.052429 241.271729,294.723999 
	C239.545349,282.802429 236.255402,271.112946 233.855972,259.280884 
	C232.525742,252.721222 233.886322,250.469620 240.016251,247.266220 
	C242.251602,246.098038 244.375168,244.715942 247.572235,242.827454 
	C241.461182,241.482697 236.715546,240.374756 231.940567,239.412415 
	C229.237991,238.867722 227.874512,237.449615 227.125061,234.699112 
	C220.795898,211.470749 214.651215,188.182999 207.747726,165.123672 
	C203.580200,151.203217 200.539169,136.725082 191.433762,124.678146 
	C189.363754,121.939438 187.385101,120.724640 184.003708,120.950447 
	C173.320953,121.663834 165.069199,126.558617 158.548279,134.875717 
	C149.693207,146.169846 143.920532,159.027206 138.904327,173.152863 
M342.807770,216.973740 
	C339.608246,252.163162 344.235992,310.349579 351.584991,323.114899 
	C351.339478,278.113831 357.002197,233.837158 351.687042,188.900192 
	C365.113220,188.900192 377.963470,187.982513 390.603821,189.215790 
	C399.348785,190.069016 405.793121,186.808136 412.307861,182.493332 
	C415.542542,180.350937 415.058441,178.515778 411.312531,177.013763 
	C410.387024,176.642639 409.433411,176.334198 408.477936,176.046112 
	C363.621216,162.522186 319.300720,166.378189 275.329803,180.290283 
	C273.798523,180.774796 272.425385,182.302246 271.373993,183.651718 
	C268.888306,186.842072 266.939911,190.495132 264.211121,193.439117 
	C261.639404,196.213577 260.209503,199.008362 262.188232,202.336670 
	C263.955933,205.310013 266.680481,205.944366 270.355438,205.049484 
	C287.153137,200.959076 303.998871,197.041016 320.912018,193.460999 
	C328.772583,191.797165 336.826050,191.044434 345.083984,189.835938 
	C344.305054,199.171005 343.601074,207.607910 342.807770,216.973740 
z"/>
<path fill="#414141" opacity="1.000000" stroke="none" 
	d="
M265.532043,1.000000 
	C260.205200,1.187244 254.410385,1.374488 248.307785,1.280866 
	C253.688034,1.000000 259.376068,1.000000 265.532043,1.000000 
z"/>
<path fill="#F9F9F9" opacity="1.000000" stroke="none" 
	d="
M139.012695,172.778366 
	C143.920532,159.027206 149.693207,146.169846 158.548279,134.875717 
	C165.069199,126.558617 173.320953,121.663834 184.003708,120.950447 
	C187.385101,120.724640 189.363754,121.939438 191.433762,124.678146 
	C200.539169,136.725082 203.580200,151.203217 207.747726,165.123672 
	C214.651215,188.182999 220.795898,211.470749 227.125061,234.699112 
	C227.874512,237.449615 229.237991,238.867722 231.940567,239.412415 
	C236.715546,240.374756 241.461182,241.482697 247.572235,242.827454 
	C244.375168,244.715942 242.251602,246.098038 240.016251,247.266220 
	C233.886322,250.469620 232.525742,252.721222 233.855972,259.280884 
	C236.255402,271.112946 239.545349,282.802429 241.271729,294.723999 
	C243.781097,312.052429 245.517685,329.529510 242.654358,347.018829 
	C242.155685,347.244537 241.657013,347.470245 241.158340,347.695953 
	C239.109512,344.156372 236.739670,340.761871 235.064011,337.053680 
	C224.297546,313.227539 218.575897,287.804962 211.792557,262.720734 
	C210.886307,259.369507 209.959183,256.023926 208.877228,252.075363 
	C204.102661,252.075363 199.482620,252.051865 194.862885,252.079468 
	C175.535858,252.194962 156.208817,252.407547 136.882019,252.384476 
	C132.843033,252.379654 130.560959,253.357468 129.557205,257.718933 
	C126.181252,272.387939 122.416054,286.967346 118.389160,303.240387 
	C124.511604,300.629303 129.177582,298.639404 134.776993,296.251404 
	C129.680283,305.796906 125.326874,314.356110 120.505104,322.642792 
	C119.526382,324.324768 116.776360,325.834534 114.851868,325.823761 
	C113.429077,325.815796 111.443214,323.455750 110.704834,321.719666 
	C107.289917,313.690521 106.870499,305.185120 108.184624,296.696350 
	C110.221329,283.539856 112.548103,270.424774 115.004990,257.339661 
	C115.521729,254.587540 115.318619,253.084076 112.529236,251.941528 
	C106.919487,249.643692 101.443466,247.019379 94.648354,243.960892 
	C102.169220,241.913834 108.476898,239.611862 114.983177,238.641296 
	C119.010269,238.040588 120.047867,236.133133 121.005974,232.889206 
	C126.893936,212.954010 132.922531,193.060349 139.012695,172.778366 
M200.373383,234.223480 
	C201.589600,234.156174 202.805801,234.088882 204.548538,233.992447 
	C195.488663,201.561295 188.898346,169.030182 176.635986,136.962341 
	C155.886795,167.470551 146.049957,201.073044 136.386047,234.179672 
	C157.611588,234.179672 178.514587,234.179672 200.373383,234.223480 
z"/>
<path fill="#B243F6" opacity="1.000000" stroke="none" 
	d="
M342.852417,216.509277 
	C343.601074,207.607910 344.305054,199.171005 345.083984,189.835938 
	C336.826050,191.044434 328.772583,191.797165 320.912018,193.460999 
	C303.998871,197.041016 287.153137,200.959076 270.355438,205.049484 
	C266.680481,205.944366 263.955933,205.310013 262.188232,202.336670 
	C260.209503,199.008362 261.639404,196.213577 264.211121,193.439117 
	C266.939911,190.495132 268.888306,186.842072 271.373993,183.651718 
	C272.425385,182.302246 273.798523,180.774796 275.329803,180.290283 
	C319.300720,166.378189 363.621216,162.522186 408.477936,176.046112 
	C409.433411,176.334198 410.387024,176.642639 411.312531,177.013763 
	C415.058441,178.515778 415.542542,180.350937 412.307861,182.493332 
	C405.793121,186.808136 399.348785,190.069016 390.603821,189.215790 
	C377.963470,187.982513 365.113220,188.900192 351.687042,188.900192 
	C357.002197,233.837158 351.339478,278.113831 351.584991,323.114899 
	C344.235992,310.349579 339.608246,252.163162 342.852417,216.509277 
z"/>
<path fill="#3D3D3D" opacity="1.000000" stroke="none" 
	d="
M74.940872,436.725311 
	C73.325081,435.621307 71.674347,434.169861 69.978012,432.373413 
	C71.590256,433.478241 73.248085,434.928070 74.940872,436.725311 
z"/>
<path fill="#3D3D3D" opacity="1.000000" stroke="none" 
	d="
M81.937057,443.720825 
	C80.656502,442.948120 79.341583,441.829224 77.976906,440.366699 
	C79.252327,441.140228 80.577507,442.257446 81.937057,443.720825 
z"/>
<path fill="#3D3D3D" opacity="1.000000" stroke="none" 
	d="
M68.936401,430.755371 
	C68.419678,430.575775 67.861580,430.091339 67.214592,429.343842 
	C67.715477,429.537354 68.305260,429.993927 68.936401,430.755371 
z"/>
<path fill="#3D3D3D" opacity="1.000000" stroke="none" 
	d="
M85.873688,447.576172 
	C85.331619,447.425079 84.736496,446.962219 83.975204,446.258270 
	C84.479576,446.432922 85.150108,446.848663 85.873688,447.576172 
z"/>
<path fill="#3D3D3D" opacity="1.000000" stroke="none" 
	d="
M69.882423,431.822906 
	C69.703476,431.870575 69.413223,431.685577 69.031715,431.252136 
	C69.217346,431.199219 69.494232,431.394714 69.882423,431.822906 
z"/>
<path fill="#3D3D3D" opacity="1.000000" stroke="none" 
	d="
M75.877937,437.832581 
	C75.718994,437.863831 75.437523,437.669647 75.048988,437.237427 
	C75.213089,437.201965 75.484253,437.404541 75.877937,437.832581 
z"/>
<path fill="#3D3D3D" opacity="1.000000" stroke="none" 
	d="
M76.877975,438.832428 
	C76.718758,438.863892 76.437225,438.669830 76.048859,438.237671 
	C76.213234,438.201996 76.484451,438.404449 76.877975,438.832428 
z"/>
<path fill="#3D3D3D" opacity="1.000000" stroke="none" 
	d="
M77.879257,439.833618 
	C77.719673,439.865204 77.438004,439.670715 77.049286,439.237976 
	C77.213882,439.202301 77.485535,439.404938 77.879257,439.833618 
z"/>
<path fill="#3D3D3D" opacity="1.000000" stroke="none" 
	d="
M82.892540,444.993896 
	C82.704056,445.020325 82.418938,444.778351 82.039993,444.270020 
	C82.229416,444.244293 82.512657,444.484924 82.892540,444.993896 
z"/>
<path fill="#292929" opacity="1.000000" stroke="none" 
	d="
M199.895493,234.201569 
	C178.514587,234.179672 157.611588,234.179672 136.386047,234.179672 
	C146.049957,201.073044 155.886795,167.470551 176.635986,136.962341 
	C188.898346,169.030182 195.488663,201.561295 204.548538,233.992447 
	C202.805801,234.088882 201.589600,234.156174 199.895493,234.201569 
z"/>
</svg>